<svg aria-hidden="true" style="position: absolute; width: 0; height: 0; overflow: hidden;" version="1.1" xmlns="http://www.w3.org/2000/svg" xmlns:xlink="http://www.w3.org/1999/xlink">
    <defs>
        <symbol id="icon-facebook" viewBox="0 0 32 32">
            <path d="M19.52 4.64c0.24 0 0.48 0 0.96 0v3.6c-0.24 0-0.72 0-1.2 0s-0.96 0-1.2 0.24c-0.24 0.24-0.24 0.48-0.24 1.040 0 0.48 0 0.8 0 1.28h2.64v3.040h-2.64v13.2h-4.080v-13.28h-2.16v-3.040h2.16v-1.040c0-1.76 0.24-3.040 0.72-3.6 0.72-1.040 2.16-1.52 4.32-1.52 0.24 0.080 0.48 0.080 0.72 0.080z"></path>
        </symbol>
        <symbol id="icon-instagram" viewBox="0 0 32 32">
            <path d="M28.717 10.756c-0.016-1.074-0.215-2.14-0.596-3.145-0.667-1.716-2.024-3.073-3.743-3.737-0.994-0.373-2.044-0.573-3.108-0.596-1.368-0.061-1.801-0.078-5.273-0.078s-3.917 0-5.274 0.078c-1.062 0.023-2.112 0.223-3.106 0.596-1.719 0.664-3.078 2.021-3.743 3.737-0.374 0.992-0.576 2.041-0.596 3.101-0.061 1.367-0.080 1.8-0.080 5.265s0 3.909 0.080 5.265c0.021 1.062 0.222 2.109 0.596 3.104 0.667 1.714 2.024 3.071 3.744 3.735 0.989 0.386 2.040 0.605 3.106 0.639 1.369 0.061 1.803 0.080 5.274 0.080s3.916 0 5.274-0.080c1.062-0.021 2.113-0.221 3.108-0.595 1.719-0.666 3.076-2.022 3.743-3.737 0.374-0.994 0.574-2.041 0.596-3.104 0.061-1.365 0.080-1.798 0.080-5.265-0.003-3.466-0.003-3.906-0.082-5.264zM15.99 22.531c-3.631 0-6.572-2.936-6.572-6.561s2.941-6.561 6.572-6.561c3.628 0 6.572 2.936 6.572 6.561s-2.944 6.561-6.572 6.561zM22.823 10.696c-0.849 0-1.532-0.684-1.532-1.53s0.684-1.53 1.532-1.53c0.846 0 1.531 0.684 1.531 1.53s-0.685 1.53-1.531 1.53z"></path>
            <path d="M15.992 19.976c2.211 0 4.004-1.793 4.004-4.004s-1.793-4.004-4.004-4.004c-2.211 0-4.004 1.793-4.004 4.004s1.793 4.004 4.004 4.004z"></path>
        </symbol>
        <symbol id="icon-youtube" viewBox="0 0 32 32">
            <path d="M24.24 6c-1.36-0.080-4.16-0.16-8.4-0.16h-0.56c-4.080 0-6.8 0.080-8.16 0.24-1.84 0.16-3.12 0.64-3.84 1.28-0.64 0.56-1.12 1.6-1.28 2.96-0.080 0.88-0.16 2.72-0.16 5.52v0.4c0 2.64 0.080 4.48 0.24 5.36 0.24 1.28 0.64 2.24 1.44 2.8 0.8 0.64 2.16 1.040 4.080 1.2 1.36 0.080 4.16 0.16 8.4 0.16h0.56c4.080 0 6.8-0.080 8.16-0.24 1.84-0.16 3.12-0.64 3.84-1.28 0.64-0.56 1.12-1.6 1.28-2.96 0.080-0.88 0.16-2.72 0.16-5.52v-0.4c0-2.64-0.080-4.48-0.24-5.36-0.24-1.28-0.64-2.24-1.44-2.8-0.8-0.64-2.16-1.040-4.080-1.2zM21.12 15.84l-8.8 5.28v-10.56l8.8 5.28z"></path>
        </symbol>
        <symbol id="icon-burger" viewBox="0 0 48 32">
            <path stroke-linejoin="miter" stroke-linecap="round" stroke-miterlimit="4" stroke-width="2.6667" d="M8.638 5.455h38.029"></path>
            <path stroke-linejoin="miter" stroke-linecap="round" stroke-miterlimit="4" stroke-width="2.6667" d="M8.638 24.849h38.029"></path>
            <path stroke-linejoin="miter" stroke-linecap="round" stroke-miterlimit="4" stroke-width="2.6667" d="M20.116 15.151h26.551"></path>
        </symbol>
        <symbol id="icon-cross" viewBox="0 0 32 32">
            <path stroke-linejoin="round" stroke-linecap="round" stroke-miterlimit="4" stroke-width="1.7778" d="M24 8l-16 16"></path>
            <path stroke-linejoin="round" stroke-linecap="round" stroke-miterlimit="4" stroke-width="1.7778" d="M8 8l16 16"></path>
        </symbol>
        <symbol id="icon-arrow" viewBox="0 0 48 32">
            <path d="M41.648 18.935c-0.261-1.955-0.429-3.7-0.506-5.235-0.033-1.56 0.026-2.91 0.178-4.050l-37.94 21.905-1.795-3.109 37.94-21.905c-1.092-0.488-2.305-1.137-3.639-1.945-1.291-0.834-2.704-1.827-4.238-2.981l2.278-1.315c4.813 2.024 9.215 3.036 13.206 3.035l0.769 1.332c-2.025 3.406-3.35 7.724-3.975 12.954l-2.278 1.315z"></path>
        </symbol>
        <symbol id="icon-star" viewBox="0 0 32 32">
            <path d="M15.685 0.183c0.14-0.243 0.49-0.243 0.63 0l2.206 3.831c0.106 0.183 0.345 0.238 0.52 0.119l3.69-2.517c0.232-0.159 0.549-0.004 0.568 0.277l0.288 4.371c0.014 0.213 0.208 0.369 0.42 0.335l4.43-0.7c0.281-0.044 0.501 0.236 0.393 0.498l-1.673 4.045c-0.083 0.2 0.027 0.428 0.235 0.488l4.284 1.245c0.275 0.080 0.354 0.431 0.14 0.621l-3.299 2.932c-0.163 0.145-0.163 0.399 0 0.544l3.299 2.932c0.214 0.19 0.135 0.541-0.14 0.621l-4.284 1.245c-0.208 0.060-0.317 0.288-0.235 0.488l1.673 4.045c0.109 0.262-0.112 0.543-0.393 0.498l-4.43-0.7c-0.211-0.033-0.406 0.122-0.42 0.335l-0.288 4.371c-0.018 0.281-0.335 0.435-0.568 0.276l-3.69-2.517c-0.175-0.119-0.414-0.065-0.52 0.119l-2.206 3.831c-0.14 0.243-0.49 0.243-0.63 0l-2.206-3.831c-0.106-0.183-0.345-0.238-0.52-0.119l-3.69 2.517c-0.232 0.159-0.549 0.004-0.568-0.276l-0.288-4.371c-0.014-0.213-0.208-0.369-0.42-0.335l-4.43 0.7c-0.281 0.044-0.501-0.236-0.393-0.498l1.673-4.045c0.083-0.2-0.027-0.428-0.235-0.488l-4.284-1.245c-0.275-0.080-0.354-0.431-0.14-0.621l3.299-2.932c0.163-0.145 0.163-0.399 0-0.544l-3.299-2.932c-0.214-0.19-0.135-0.541 0.14-0.621l4.284-1.245c0.208-0.060 0.317-0.288 0.235-0.488l-1.673-4.045c-0.109-0.262 0.112-0.542 0.393-0.498l4.43 0.7c0.211 0.033 0.406-0.122 0.42-0.335l0.288-4.371c0.018-0.281 0.335-0.435 0.568-0.277l3.69 2.517c0.175 0.119 0.414 0.065 0.52-0.119l2.206-3.831z"></path>
        </symbol>
    </defs>
</svg>